<svg id="Bace" xmlns="http://www.w3.org/2000/svg" viewBox="0 0 1916.99 1920"><defs><style>.cls-1{fill:#f8f8f8;}.cls-2{fill:#f5d646;}.cls-3{fill:#f3a33d;}.cls-4{fill:#f4c045;}</style></defs><title>Logo</title><path class="cls-1" d="M703.81,1026C654.86,955.84,606,885.53,560.32,813.24c-19.18-30.38-40.25-44.9-77-41.79-37.87,3.21-76.22.71-120.34.71,0,98.26,1,191.3,1,284.26H73.87c0-348.41-1-702.17-1-1051.44,3.17-1.88,6-5,8.77-5C276,2.61,471.41-5.93,664.53,11.06c277.08,24.4,431,292,321.26,536.2-29.57,65.79-61.71,99.09-172.55,177.25C886,831.94,959,940.31,1038,1057c-105.59,0-201.85,1.08-298-1.33C727.54,1055.33,712.46,1038.41,703.81,1026Zm16.13-631.31c.91-80.74-41.71-139-126-149-75-8.88-151.92-1.87-229.28-1.87V540.43c77.62,0,151.4,5.94,223.79-1.55C674,530,719,474.43,719.94,394.68Z" transform="translate(-1.5 0)"/><rect class="cls-2" y="1056.42" width="1739.94" height="291.04"/><path class="cls-2" d="M1875.88,1099a145.52,145.52,0,0,0-205.8,0l-102.9,102.9L1054.92,1714.2,1260.71,1920,1773,1407.74l102.9-102.9a145.54,145.54,0,0,0,0-205.8Z" transform="translate(-1.5 0)"/><path class="cls-3" d="M1773,996.14,1260.71,483.88l-205.79,205.8,512.26,512.26,102.9,102.9a145.52,145.52,0,0,0,205.8,0h0a145.54,145.54,0,0,0,0-205.8Z" transform="translate(-1.5 0)"/><path class="cls-4" d="M1670.08,1099l-102.9,102.9,102.9,102.9a145.52,145.52,0,0,0,205.8,0h0a145.54,145.54,0,0,0,0-205.8h0A145.52,145.52,0,0,0,1670.08,1099Z" transform="translate(-1.5 0)"/></svg>